<?xml version="1.0" encoding="UTF-8"?>
<svg id="Layer_1" data-name="Layer 1" xmlns="http://www.w3.org/2000/svg" viewBox="0 0 23.93 23.94">
  <path d="M17.57,23.94c-.21,0-.4-.09-.54-.15-.05-.03-.11-.05-.16-.07-.09-.03-1.13-.52-1.25-.62-.41-.33-.62-.89-.78-1.34-.09-.23-.17-.47-.25-.56-.09-.08-.58-.33-.72-.33-.12.06-.25.13-.37.19-.28.15-.54.29-1.17.33-1.9.1-2.8-.72-3.67-1.52-.44-.4-.89-.81-1.47-1.13-.1-.05-.27-.1-.45-.14-.36-.09-.8-.2-1.17-.52-.28-.24-.42-.52-.54-.74-.09-.16-.16-.3-.27-.4-.1-.1-.25-.11-.46-.12-.17,0-.34-.02-.5-.12-.67-.44-1.23-1.49-1.33-2.2-.02-.15,0-.34.03-.53.02-.11.04-.29.03-.34-.02-.03-.22-.19-.35-.29-.24-.19-.51-.4-.69-.69-.59-.98.23-1.9.77-2.5.19-.21.47-.52.48-.63-.05-.06-.54-.79-.64-.9-.06-.05-.2-.07-.35-.08-.2-.02-.46-.05-.63-.25-.06-.07-1.06-1.81-1.1-2.03-.12-.6.16-1.02.38-1.35.1-.15.2-.29.25-.44.09-.24.04-.48,0-.75-.08-.42-.17-.94.25-1.5l.07-.07c.08-.07.12-.1.16-.13,1.29-.92,1.86-.66,2.48-.23.29.2.52.36.97.3.19-.03.45-.15.72-.28.35-.17.75-.36,1.16-.41.2-.02.53,0,1.05.07.24.03.6.06.69.06,0,0,0-.07.05-.19.07-.17.17-.39.41-.53C9,.6,12.41-.03,12.73,0c.15.01.95.36.96.36.17.08.21.24.23.35.07.02.16.04.26.07.2.06.42.12.56.17.17.07.27.19.35.27.11.08.31.08.47.09.25,0,.52,0,.76.08.48.16.82.44,1.12.69.22.18.42.35.67.47.25.12.52.15.81.19.5.06,1.08.13,1.62.66.67.67.8,1.37.9,1.93.1.54.17.94.63,1.28.03.02.1.04.18.06.19.05.48.12.67.44.21.36.09.89-.03,1.41-.04.18-.11.46-.1.54.04.09.2.26.35.41.15.16.31.32.41.49.42.68.52,2.08.23,3.18-.18.68-.49,1.15-.9,1.38-.21.12-.47.13-.7.14-.13,0-.34.02-.39.05-.07.05-.13.28-.17.42-.06.19-.11.38-.22.52-.2.26-.49.42-.76.58-.23.13-.44.25-.6.42-.31.33-.3.94-.29,1.53,0,.35,0,.68-.05.98-.03.18-.16.28-.25.35,0,0-.02.01-.02.02-.07.33-.03.35.15.44.19.1.48.24.65.63.09.21.21.92-.08,1.26-.4.47-1.53,1.44-2.16,1.94h0c-.13.11-.27.15-.41.15ZM14.99,20.2s.11.05.16.08c.1.07.21.14.28.25.31.42.44.78.54,1.06.16.45.25.7,1.15,1.03h0c.09.03.17.08.24.12h.12c.18-.12,1.59-1.34,1.74-1.5.01-.12-.34-.51-.57-.65,0,0-.02,0-.03,0-.24.09-.44.16-.61.16h0s-1.9-.07-2.12-.19c-.16-.08-.29-.22-.42-.35-.07-.08-.21-.22-.27-.24-.2.17-.22.24-.22.24,0,0,0,0,.01,0ZM6.28,10.37s0,.05,0,.08c0,.12.01.28-.06.43-.17.34-.44.72-.7,1.08-.19.26-.37.5-.5.72-.15.26-.15.35-.15.35.14.14.26.27.33.48.15.48.22,1,.29,1.5.13.91.25,1.77.77,2.25.2.18.5.26.79.34.21.06.42.11.59.21.82.46,1.39.96,1.9,1.39,1.16,1,1.8,1.55,4.07.64.15-.06.3-.03.44,0,0,0,0,0,0-.01.08-.19.21-.47.45-.66.22-.17.48-.2.66-.21.07-.21.17-.54.21-.67-.07-1.77.92-3.2,1.89-4.58.94-1.35,1.83-2.63,1.76-4.17h0c0-.14.02-.25.03-.33-.24-.28-2.01-.93-2.49-1.04-3.18-.76-6.09.42-9.3,1.93-.16.07-.43.14-.79.23-.08.02-.16.04-.22.05ZM16.49,18.15c-.05.19-.11.36-.17.52-.19.52-.23.68.12.93.22.08,1.49.08,1.96,0,0-.03,0-.05,0-.08,0-.21.01-.35.05-.46.05-.15.15-.24.22-.31.15-.55.06-.7.03-.73-.14-.15-.71-.05-1.13.02-.36.06-.73.13-1.07.11ZM19.75,11.81c-.16.22-.73,1.03-.83,1.18-.14.22-.3.56-.45.89-.15.33-.31.65-.46.91-.17.28-.37.55-.57.82-.35.47-.69.92-.85,1.46l2.23-.11s0-.07,0-.09c0-.13-.01-.24.03-.36.25-.64.77-.94,1.2-1.19.22-.13.43-.25.52-.38.03-.05.22-.46.32-.7-.08-.09-.15-.2-.17-.33-.01-.09-.02-.21-.02-.31,0-.05,0-.09,0-.12-.24-1.19-.45-1.56-.52-1.66-.11-.01-.28-.02-.4-.03ZM4.42,15.81s.12.02.22.03c-.06-.62-.5-2.04-.75-2.27-.06-.03-.28,0-.32.05-.28.58.27,1.82.84,2.19,0,0,0,0,0,0ZM19.98,10.79c.05,0,.1,0,.14,0,.31.01.46.02.58.09.35.19.63.73.92,1.73.05.18.06.38.07.57,0,.13.02.38.06.49.21-.03.6-.12.69-.15.5-.37.58-2.35.18-3.01-.47-.79-.7-.79-1.4-.81-.18,0-.37,0-.59-.03-.13-.01-.31-.06-.52-.13-.06.35-.12.91-.14,1.24ZM3.73,9.84c-.04.17-.09.36-.18.5-.11.16-.28.35-.47.56-.32.35-.81.88-.68,1.12.06.1.37.43.57.6.09-.05.21-.09.33-.09h.16c.1.01.33.02.45.01.24-.3.97-1.56,1.1-1.86l.03-.07.09-.09c.14-.14.18-.22.15-.31-.04-.12-.27-.39-.41-.52-.09.07-.2.14-.34.16-.08,0-.28,0-.5,0-.1,0-.21,0-.3,0ZM9.27,4.19c-.28.07-.59.13-.91.2-1.14.23-2.43.49-2.82,1.33-.27.59-.19.8-.03,1.17.08.18.17.39.22.67.06.31,0,.61-.05.88-.1.47-.14.69.32.95.21-.01,1.46-.64,2-.91.34-.17.62-.31.77-.37.39-.15.97-.33,1.43-.46l.26-.08c.2-.05.42-.12.63-.18.7-.21,1.48-.43,2.21-.48-.09-.13-.22-.28-.28-.35-.11-.12-.19-.23-.23-.29-.08-.14-.09-.28-.09-.41-.03,0-.06,0-.09,0-.56-.04-1.01-.08-1.27-.23-.16-.09-.33-.26-.51-.43-.14-.14-.31-.3-.42-.36-.12-.07-.26-.13-.39-.19-.25-.11-.52-.23-.75-.43ZM3.34,8.4c.1.16.22.35.27.4.12.05.66-.02.9-.12,0-.07,0-.15.03-.23h0c.21-.51.18-.81-.09-1.09-.09-.03-.54-.04-.83-.03,0,.04,0,.08,0,.13,0,.31-.02.5-.06.63-.04.12-.12.22-.21.3ZM14.41,6.83c.35.07,1.05.15,1.51.2.56.06.91.1,1.09.14.93.22,1.48.53,2.06.86.26.15.52.3.84.45.16.05,1.36.2,1.88.23.06-.29.14-.78.16-1.02-.06-.02-.16-.07-.25-.11-.32-.16-.66-.32-.84-.53-.3-.35-.38-.86-.46-1.34-.08-.46-.15-.93-.4-1.24-.43-.55-.91-.63-1.47-.72-.41-.07-.82-.14-1.24-.38-.22-.13-.4-.29-.58-.45-.2-.18-.4-.35-.63-.46-.22-.1-.49-.11-.74-.12-.24,0-.48-.01-.7-.09-.07-.03-.14-.07-.32-.19-.08-.06-.25-.17-.39-.26,0,.08,0,.16,0,.19.02.03.19.2.31.33.2.2.42.43.55.68.16.32.23,1.51,0,1.85-.12.19-.36.36-.64.56-.12.09-.31.22-.42.32.12.21.34.56.45.69.13.16.18.3.2.42ZM1.93,7.51c.17.04.47.11.62.14.04-.1.1-.43.08-.55-.07-.14-.85-1.34-1.05-1.61-.05-.02-.14-.05-.22-.08-.12.21-.28.52-.31.59,0,.09.09.21.3.45.1.12.2.23.27.35.04.06.13.27.22.48.03.08.07.16.1.23ZM1.65,3.21c0,.16.09,1.04.12,1.17.02.02.11.06.28.12.16.06.35.14.5.32.09.11.18.31.35.65.12.26.29.61.38.72.08.1.35.18.69.16.24-.02.39-.09.44-.13.02-2.09,1.98-2.5,3.42-2.8.33-.07.65-.14.92-.21-.1-.23-.48-.64-.63-.73-.07,0-1.12-.06-1.29-.06-.3.03-.65.17-1.02.32-.68.27-1.44.59-2.21.28-.22-.09-.39-.23-.54-.35-.18-.15-.3-.24-.43-.24-.29-.01-.91.5-.96.78ZM11.44,4.21c.14.09.25.21.34.32.04.05.11.13.14.15.55.29,1.41.06,1.82-.35.35-.35.2-.63.15-.73-.08-.13-.83-1.12-.95-1.24-.17-.09-.91.26-1.27.42-.23.1-.43.19-.57.24-.15.05-.43.08-.88.14-.15.02-.29.03-.4.05h0c.28.2.62.4.99.61.21.12.42.25.63.38h0ZM12.68,1.11c-.6,0-3.05.44-3.37.6-.04.03-.17.13-.16.22,0,.07.09.2.28.3.07,0,.21-.01.51-.05h.06c.42-.06.74-.22,1.08-.38.25-.12.51-.25.81-.33.24-.07.61-.05,1.04-.03.03,0,.05,0,.08,0-.05-.1-.14-.28-.23-.32-.02,0-.05,0-.09,0Z"/>
</svg>